<svg width="43" height="43" viewBox="0 0 43 43" fill="none" xmlns="http://www.w3.org/2000/svg">
<g clip-path="url(#clip0)">
<path d="M30.0892 3.58215H12.172C11.6775 3.58215 11.2761 3.98353 11.2761 4.47804C11.2761 4.97256 11.6775 5.37393 12.172 5.37393H30.0892C30.5855 5.37393 30.9851 4.97256 30.9851 4.47804C30.9851 3.98353 30.5837 3.58215 30.0892 3.58215Z" fill="#D1D1D1"/>
<path d="M13.4389 4.4779L16.3899 1.52869C16.7393 1.17931 16.7393 0.611303 16.3899 0.261917C16.0405 -0.0874685 15.4725 -0.0874685 15.1231 0.261917L11.5396 3.84539C11.1902 4.19478 11.1902 4.76278 11.5396 5.11217L15.1231 8.69564C15.2987 8.86941 15.5262 8.95726 15.7556 8.95726C15.985 8.95726 16.2143 8.86949 16.3881 8.69388C16.7375 8.34449 16.7375 7.77649 16.3881 7.4271L13.4389 4.4779Z" fill="#D1D1D1"/>
<path d="M36.0879 11.0124C34.8642 9.78859 32.9381 9.6847 31.5979 10.7077C31.442 10.1612 31.15 9.64523 30.7181 9.21522C29.3833 7.88041 27.2135 7.88041 25.8787 9.21522L13.6807 21.4133L12.5448 14.1783C12.2653 12.2235 10.5667 10.749 8.59042 10.749C7.10863 10.749 5.90283 11.9548 5.90283 13.4366V30.3307C5.90283 32.9628 6.92773 35.4371 8.7893 37.2987L11.6076 40.1171C13.4657 41.9769 15.9383 42.9999 18.5667 42.9999C21.0214 42.9999 23.3739 42.0897 25.1907 40.4396L32.5941 33.7027C33.9271 32.3679 33.9271 30.1963 32.5833 28.8526C32.1569 28.4262 31.6463 28.1359 31.1015 27.9854C32.1282 26.6452 32.0261 24.7119 30.7915 23.4774C30.374 23.0599 29.8742 22.7732 29.3456 22.6174L36.0986 15.8625C37.4317 14.5277 37.4317 12.3562 36.0879 11.0124ZM34.8338 14.5922L24.0834 25.3426C23.9096 25.5182 23.8218 25.7475 23.8218 25.9768C23.8218 26.2062 23.9078 26.4355 24.0834 26.6111C24.4328 26.9605 25.0008 26.9605 25.3502 26.6111L27.219 24.7423C27.855 24.108 28.8889 24.1063 29.5357 24.7531C30.1717 25.3891 30.1717 26.423 29.5357 27.059L27.6669 28.9278C27.6669 28.9296 27.6633 28.9314 27.6615 28.9332C27.3175 29.2843 27.3193 29.847 27.6669 30.1946C28.0163 30.544 28.5843 30.544 28.9337 30.1946L29.0107 30.1176C29.6271 29.5012 30.6913 29.4923 31.3274 30.1283C31.9634 30.7644 31.9634 31.7982 31.3579 32.4056L23.9849 39.1138C22.4996 40.463 20.5753 41.2084 18.5667 41.2084C16.4167 41.2084 14.3938 40.3716 12.8727 38.8505L10.0543 36.0321C8.53137 34.5092 7.69285 32.4845 7.69285 30.3308V13.4366C7.69285 12.9421 8.09422 12.5407 8.58874 12.5407C9.67813 12.5407 10.6152 13.3541 10.7711 14.4453L12.1865 23.4254C12.2385 23.7587 12.4731 24.0328 12.7939 24.1385C13.1128 24.2424 13.4658 24.1564 13.704 23.9199L27.1473 10.4766C27.7834 9.84235 28.8173 9.84058 29.464 10.4874C30.1001 11.1234 30.1001 12.1573 29.464 12.7933L20.4999 21.7573C20.3262 21.9329 20.2383 22.1622 20.2383 22.3916C20.2383 22.621 20.3243 22.8503 20.4999 23.0259C20.8493 23.3753 21.4173 23.3753 21.7667 23.0259L32.5171 12.2755C33.1531 11.6395 34.187 11.6395 34.8338 12.2863C35.4698 12.9223 35.4698 13.9562 34.8338 14.5922Z" fill="#D1D1D1"/>
</g>
<defs>
<clipPath id="clip0">
<rect width="43" height="43" fill="white"/>
</clipPath>
</defs>
</svg>
